<?xml version="1.0" encoding="UTF-8" standalone="no"?>
<!DOCTYPE svg PUBLIC "-//W3C//DTD SVG 1.1//EN"
"http://www.w3.org/Graphics/SVG/1.1/DTD/svg11.dtd">


<!-- Page 1 -->
<svg x="0" y="0" width="430" height="100" viewBox="430 467 350 1.5" version="1.1" xmlns="http://www.w3.org/2000/svg" xmlns:xlink="http://www.w3.org/1999/xlink">
<defs>
<clipPath id="c0_1"><path d="M432.1,428.7l345.7,0l0,77.6l-345.7,0Z" /></clipPath>

<style type="text/css"><![CDATA[

.g1_1{
fill: #64676B;
}
.g2_1{
fill: #662E6B;
}


]]></style>

</defs>

<g clip-path="url(#c0_1)">
<path d="M539.6,467.5L518.2,428.7l-79,0c-3.9,0,-7.1,3.2,-7.1,7.2l0,63.2c0,4,3.2,7.2,7.1,7.2l78.9,0l21.5,-38.8Zm-67.4,17.4l-6.4,0L450,459.4l-0.1,0l0,25.5l-5.8,0l0,-34.6l6.4,0l15.8,25.5l0.1,0l0,-25.5l5.8,0l0,34.6Zm12.1,-34.6l0,34.6l-6.1,0l0,-34.6l6.1,0ZM518.3,450.3l0,34.6l-6.1,0l0,-15.6l-15.8,0l0,15.6l-6.1,0l0,-34.6l6.1,0l0,13.7l15.8,0l0,-13.7l6.1,0Z" class="g1_1" />
<path d="M523.5,506.3L545,467.5L523.6,428.7l5.3,0c3,0,6.5,2.1,8,4.7l18.8,34.1l-18.9,34.1c-1.4,2.6,-5,4.7,-7.9,4.7l-5.4,0Z" class="g1_1" />
<path d="M523.5,506.3L545,467.5L523.6,428.7l5.3,0c3,0,6.5,2.1,8,4.7l18.8,34.1l-18.9,34.1c-1.4,2.6,-5,4.7,-7.9,4.7l-5.4,0Z" class="g2_1" />
<path d="M564.4,490.1l4.9,0l0,13.1l2.7,0l0,-13.1l4.9,0l0,-2.3l-12.5,0l0,2.3Zm11.5,13.1l2.5,0l0,-5.3c0,-2.5,1.3,-3.8,3,-3.8c0.4,0,0.7,0,1.1,0.1l0,-2.4c-0.2,0,-0.4,0,-1,0c-1.5,0,-2.9,1.2,-3.2,2.4l-0.1,0l0,-2.2l-2.3,0l0,11.2ZM590,499.4c0,1.6,-1.7,2.2,-2.7,2.2c-0.9,0,-2.3,-0.4,-2.3,-1.5c0,-1.3,0.9,-1.6,2,-1.8c1.1,-0.2,2.3,-0.2,3,-0.7l0,1.8Zm2.5,-4.4c0,-2.4,-2.3,-3.2,-4.5,-3.2c-2.4,0,-4.9,0.8,-5.1,3.7l2.5,0c0.1,-1.3,1.1,-1.8,2.5,-1.8c0.9,0,2.3,0.2,2.3,1.5c0,1.4,-1.6,1.2,-3.4,1.6c-2,0.2,-4.3,0.7,-4.3,3.4c0,2.2,1.8,3.3,3.8,3.3c1.4,0,2.9,-0.4,3.9,-1.4c0.2,1,0.9,1.4,1.9,1.4c0.4,0,1.2,-0.2,1.6,-0.3l0,-1.7c-0.3,0.1,-0.5,0.1,-0.7,0.1c-0.4,0,-0.5,-0.3,-0.5,-0.9l0,-5.7Zm2.2,8.2l2.5,0l0,-6.6c0,-1.6,1,-2.9,2.7,-2.9c1.4,0,2.1,0.7,2.2,2.5l0,7l2.4,0l0,-7.7c0,-2.5,-1.5,-3.7,-3.9,-3.7c-1.5,0,-2.8,0.7,-3.5,1.9l0,-1.7l-2.4,0l0,11.2Zm11.4,-3.6c0.1,2.6,2.1,3.9,4.9,3.9c2.3,0,5,-1,5,-3.6c0,-2.2,-1.8,-2.9,-3.6,-3.3c-1.8,-0.4,-3.6,-0.6,-3.6,-1.8c0,-0.9,1.3,-1.1,2,-1.1c1.1,0,2.1,0.3,2.3,1.5l2.6,0c-0.3,-2.5,-2.4,-3.4,-4.7,-3.4c-2,0,-4.7,0.7,-4.7,3.1c0,2.3,1.8,2.9,3.6,3.3c1.8,0.4,3.6,0.6,3.7,1.9c0,1.3,-1.6,1.5,-2.5,1.5c-1.3,0,-2.4,-0.6,-2.5,-2l-2.5,0Zm11.5,-11.8l0,15.4l2.4,0l0,-15.4l-2.4,0ZM629.2,499.4c0,1.6,-1.7,2.2,-2.8,2.2c-0.8,0,-2.2,-0.4,-2.2,-1.5c0,-1.3,0.9,-1.6,2,-1.8c1.1,-0.2,2.2,-0.2,3,-0.7l0,1.8Zm2.4,-4.4c0,-2.4,-2.2,-3.2,-4.4,-3.2c-2.5,0,-4.9,0.8,-5.1,3.7l2.5,0c0.1,-1.3,1.1,-1.8,2.4,-1.8c1,0,2.3,0.2,2.3,1.5c0,1.4,-1.5,1.2,-3.3,1.6c-2.1,0.2,-4.3,0.7,-4.3,3.4c0,2.2,1.8,3.3,3.8,3.3c1.3,0,2.9,-0.4,3.9,-1.4c0.2,1,0.9,1.4,1.9,1.4c0.4,0,1.2,-0.2,1.5,-0.3l0,-1.7c-0.2,0.1,-0.4,0.1,-0.6,0.1c-0.4,0,-0.6,-0.3,-0.6,-0.9l0,-5.7Zm1.2,-1.1l1.8,0l0,6.6c0.1,1.8,0.6,2.8,3.1,2.8c0.6,0,1.1,-0.1,1.6,-0.1l0,-1.9c-0.3,0.1,-0.7,0.1,-1,0.1c-1.1,0,-1.2,-0.6,-1.2,-1.6l0,-5.9l2.2,0l0,-1.9l-2.2,0l0,-3.3l-2.5,0l0,3.3l-1.8,0l0,1.9Zm8,-1.9l0,11.2l2.4,0l0,-11.2l-2.4,0ZM640.8,487.8l0,2.3l2.4,0l0,-2.3l-2.4,0ZM650.6,501.6c-2.2,0,-3.2,-2.1,-3.2,-4c0,-1.9,1,-3.9,3.2,-3.9c2.2,0,3.2,2,3.2,3.9c0,1.9,-1,4,-3.2,4m0,1.9c3.6,0,5.6,-2.5,5.6,-5.9c0,-3.4,-2,-5.8,-5.6,-5.8c-3.6,0,-5.6,2.4,-5.6,5.8c0,3.4,2,5.9,5.6,5.9m7.3,-0.3l2.4,0l0,-6.6c0,-1.6,1.1,-2.9,2.7,-2.9c1.5,0,2.2,0.7,2.2,2.5l0,7l2.5,0l0,-7.7c0,-2.5,-1.6,-3.7,-4,-3.7c-1.4,0,-2.7,0.7,-3.4,1.9l-0.1,0l0,-1.7l-2.3,0l0,11.2Zm18.8,-3.8c0,1.6,-1.6,2.2,-2.7,2.2c-0.9,0,-2.3,-0.4,-2.3,-1.5c0,-1.3,1,-1.6,2,-1.8c1.1,-0.2,2.3,-0.2,3,-0.7l0,1.8Zm2.5,-4.4c0,-2.4,-2.3,-3.2,-4.5,-3.2c-2.4,0,-4.9,0.8,-5,3.7l2.4,0c0.1,-1.3,1.1,-1.8,2.5,-1.8c1,0,2.3,0.2,2.3,1.5c0,1.4,-1.6,1.2,-3.3,1.6c-2.1,0.2,-4.3,0.7,-4.3,3.4c0,2.2,1.8,3.3,3.8,3.3c1.3,0,2.9,-0.4,3.8,-1.4c0.2,1,0.9,1.4,1.9,1.4c0.4,0,1.2,-0.2,1.6,-0.3l0,-1.7c-0.3,0.1,-0.5,0.1,-0.6,0.1c-0.5,0,-0.6,-0.3,-0.6,-0.9l0,-5.7Zm2.3,-7.2l0,15.4l2.5,0l0,-15.4l-2.5,0ZM691.3,498.1c0.1,3.8,2.9,5.5,6.4,5.5c3.1,0,6.1,-1.4,6.1,-4.9c0,-1.6,-0.9,-3.3,-3,-3.9c-0.8,-0.2,-4.2,-1.1,-4.4,-1.2c-1.1,-0.3,-1.8,-0.9,-1.8,-2c0,-1.5,1.5,-2,2.8,-2c1.8,0,3.2,0.8,3.3,2.7l2.7,0c0,-3.2,-2.7,-4.9,-5.9,-4.9c-2.8,0,-5.6,1.5,-5.6,4.6c0,1.6,0.7,3.2,3.4,3.9c2.1,0.5,3.5,0.8,4.6,1.2c0.6,0.3,1.2,0.7,1.2,1.9c0,1.2,-0.8,2.4,-3.2,2.4c-2.2,0,-3.9,-1,-3.9,-3.3l-2.7,0Zm24.1,-2.3c-0.2,-2.8,-2.4,-4,-5,-4c-3.7,0,-5.5,2.6,-5.5,5.9c0,3.3,1.9,5.8,5.4,5.8c2.9,0,4.7,-1.6,5.1,-4.5l-2.4,0c-0.3,1.6,-1.3,2.6,-2.7,2.6c-2.1,0,-2.9,-2,-2.9,-3.9c0,-3.3,1.8,-4,3,-4c1.4,0,2.4,0.7,2.6,2.1l2.4,0Zm1.7,-3.8l0,11.2l2.5,0l0,-11.2l-2.5,0ZM717.1,487.8l0,2.3l2.5,0l0,-2.3l-2.5,0ZM732,498.3c0.4,-3.4,-1.8,-6.5,-5.3,-6.5c-3.3,0,-5.4,2.7,-5.4,5.8c0,3.5,2,5.9,5.5,5.9c2.4,0,4.5,-1.4,5,-3.8l-2.3,0c-0.5,1.2,-1.3,1.9,-2.7,1.9c-2.1,0,-3,-1.6,-3,-3.3l8.2,0Zm-8.2,-1.7c0,-1.6,1.2,-2.9,2.9,-2.9c1.7,0,2.7,1.4,2.8,2.9l-5.7,0Zm9.6,6.6l2.5,0l0,-6.6c0,-1.6,1.1,-2.9,2.7,-2.9c1.4,0,2.1,0.7,2.2,2.5l0,7l2.4,0l0,-7.7c0,-2.5,-1.5,-3.7,-3.9,-3.7c-1.5,0,-2.8,0.7,-3.5,1.9l0,-1.7l-2.4,0l0,11.2Zm22,-7.4c-0.2,-2.8,-2.4,-4,-5,-4c-3.7,0,-5.5,2.6,-5.5,5.9c0,3.3,1.9,5.8,5.4,5.8c2.9,0,4.6,-1.6,5.1,-4.5l-2.5,0c-0.2,1.6,-1.2,2.6,-2.6,2.6c-2.1,0,-3,-2,-3,-3.9c0,-3.3,1.8,-4,3.1,-4c1.4,0,2.3,0.7,2.5,2.1l2.5,0Zm11.7,2.5c0.4,-3.4,-1.7,-6.5,-5.2,-6.5c-3.4,0,-5.4,2.7,-5.4,5.8c0,3.5,1.9,5.9,5.4,5.9c2.5,0,4.5,-1.4,5.1,-3.8l-2.4,0c-0.4,1.2,-1.2,1.9,-2.7,1.9c-2,0,-3,-1.6,-3,-3.3l8.2,0Zm-8.2,-1.7c0.1,-1.6,1.3,-2.9,3,-2.9c1.6,0,2.7,1.4,2.8,2.9l-5.8,0Zm9.1,3c0.1,2.6,2.1,3.9,4.9,3.9c2.3,0,5,-1,5,-3.6c0,-2.2,-1.8,-2.9,-3.6,-3.3c-1.8,-0.4,-3.6,-0.6,-3.6,-1.8c0,-0.9,1.3,-1.1,2,-1.1c1.1,0,2.1,0.3,2.3,1.5l2.5,0c-0.3,-2.5,-2.3,-3.4,-4.6,-3.4c-2,0,-4.7,0.7,-4.7,3.1c0,2.3,1.8,2.9,3.6,3.3c1.8,0.4,3.6,0.6,3.7,1.9c0,1.3,-1.6,1.5,-2.5,1.5c-1.3,0,-2.4,-0.6,-2.5,-2l-2.5,0Z" class="g1_1" />
</g>
<path d="M564.4,466.6l1.9,0l0,9.3l2.4,0l0,-9.3l2.1,0l0,-1.8l-2.1,0l0,-1.2c0,-0.9,0.6,-1.2,1.2,-1.2c0.5,0,0.8,0.1,1.2,0.2l0,-1.9c-0.4,-0.1,-1,-0.2,-1.8,-0.2c-1.6,0,-3,0.5,-3,3.3l0,1l-1.9,0l0,1.8Zm12.6,7.7c-2.2,0,-3.1,-2,-3.1,-4c0,-1.9,0.9,-3.9,3.1,-3.9c2.2,0,3.2,2,3.2,3.9c0,2,-1,4,-3.2,4m0,1.9c3.6,0,5.7,-2.5,5.7,-5.9c0,-3.4,-2.1,-5.8,-5.7,-5.8c-3.5,0,-5.6,2.4,-5.6,5.8c0,3.4,2.1,5.9,5.6,5.9m7.3,-0.3l2.5,0l0,-5.3c0,-2.5,1.3,-3.8,3,-3.8c0.3,0,0.7,0,1,0.1l0,-2.4c-0.2,0,-0.3,0,-0.9,0c-1.5,0,-3,1.2,-3.2,2.4l-0.1,0l0,-2.1l-2.3,0l0,11.1ZM603,463.2l0,0l2.3,6.6l-4.7,0l2.4,-6.6Zm-7.3,12.7l2.8,0l1.4,-4.1l6.1,0l1.5,4.1l2.9,0l-6,-15.4l-2.8,0l-5.9,15.4ZM613,470.4c0,-2,0.8,-4,3.1,-4c1.9,0,3.1,1.5,3.1,3.9c0,2,-0.9,4,-3.1,4c-2.1,0,-3.1,-1.9,-3.1,-3.9m8.6,-9.9l-2.5,0l0,5.7c-0.8,-1.2,-2.3,-1.7,-3.7,-1.7c-2.4,0,-4.8,1.7,-4.8,5.7c0,3.4,1.7,6,5.2,6c1.4,0,2.8,-0.5,3.4,-1.8l0.1,0l0,1.5l2.3,0l0,-15.4Zm5.2,15.4l2.8,0l4,-11.1l-2.6,0l-2.7,8.5l-2.8,-8.5l-2.7,0l4,11.1Zm14.8,-3.8c0,1.6,-1.7,2.2,-2.8,2.2c-0.9,0,-2.3,-0.4,-2.3,-1.5c0,-1.3,1,-1.6,2,-1.8c1.1,-0.2,2.3,-0.2,3.1,-0.7l0,1.8Zm2.4,-4.4c0,-2.4,-2.3,-3.2,-4.5,-3.2c-2.4,0,-4.8,0.8,-5,3.7l2.4,0c0.1,-1.2,1.1,-1.8,2.5,-1.8c1,0,2.3,0.2,2.3,1.5c0,1.5,-1.6,1.3,-3.3,1.6c-2.1,0.2,-4.3,0.7,-4.3,3.4c0,2.2,1.8,3.3,3.8,3.3c1.3,0,2.9,-0.4,3.9,-1.4c0.1,1.1,0.9,1.4,1.8,1.4c0.5,0,1.2,-0.2,1.6,-0.3l0,-1.7c-0.3,0.1,-0.5,0.1,-0.6,0.1c-0.5,0,-0.6,-0.3,-0.6,-0.9l0,-5.7Zm2.3,8.2l2.4,0l0,-6.6c0,-1.6,1.1,-2.9,2.7,-2.9c1.5,0,2.2,0.7,2.2,2.5l0,7l2.5,0l0,-7.7c0,-2.5,-1.6,-3.7,-4,-3.7c-1.5,0,-2.7,0.7,-3.5,1.9l0,-1.6l-2.3,0l0,11.1Zm21.9,-7.4c-0.2,-2.8,-2.4,-4,-5,-4c-3.7,0,-5.5,2.6,-5.5,5.9c0,3.3,1.9,5.8,5.4,5.8c2.9,0,4.7,-1.6,5.1,-4.5l-2.4,0c-0.3,1.6,-1.3,2.6,-2.7,2.6c-2.1,0,-2.9,-2,-2.9,-3.9c0,-3.3,1.8,-4,3,-4c1.4,0,2.4,0.7,2.6,2.1l2.4,0Zm1.7,-3.7l0,11.1l2.5,0l0,-11.1l-2.5,0ZM669.9,460.5l0,2.3l2.5,0l0,-2.3l-2.5,0ZM674.7,475.9l2.4,0l0,-6.6c0,-1.6,1.1,-2.9,2.7,-2.9c1.4,0,2.1,0.7,2.2,2.5l0,7l2.4,0l0,-7.7c0,-2.5,-1.5,-3.7,-3.9,-3.7c-1.5,0,-2.7,0.7,-3.5,1.9l0,-1.6l-2.3,0l0,11.1ZM691.5,474c-2.1,0,-3,-1.9,-3,-3.7c0,-1.9,0.8,-3.9,3,-3.9c2.1,0,3,1.8,3,3.7c0,1.9,-0.8,3.9,-3,3.9m5.4,-9.2l-2.4,0l0,1.5l-0.1,0c-0.6,-1.3,-1.9,-1.8,-3.3,-1.8c-3.1,0,-5,2.5,-5,5.5c0,3.2,1.5,5.9,5,5.9c1.4,0,2.6,-0.7,3.3,-2l0.1,0l0,1.7c0,1.9,-0.9,2.9,-2.9,2.9c-1.2,0,-2.4,-0.3,-2.7,-1.7l-2.4,0c0.2,2.7,2.7,3.5,5,3.5c3.5,0,5.4,-1.6,5.4,-5l0,-10.5Z" class="g1_1" />
<path d="M565.8,448.6l2.5,0l0,-11.3l0.1,0l7,11.3l2.8,0l0,-15.4l-2.5,0l0,11.3l-0.1,0l-7,-11.3l-2.8,0l0,15.4Zm21.8,-3.8c0,1.6,-1.7,2.2,-2.8,2.2c-0.8,0,-2.3,-0.4,-2.3,-1.5c0,-1.3,1,-1.6,2.1,-1.8c1,-0.2,2.2,-0.2,3,-0.7l0,1.8Zm2.4,-4.4c0,-2.4,-2.3,-3.2,-4.4,-3.2c-2.5,0,-4.9,0.8,-5.1,3.7l2.5,0c0.1,-1.2,1,-1.8,2.4,-1.8c1,0,2.3,0.2,2.3,1.5c0,1.4,-1.5,1.3,-3.3,1.6c-2.1,0.2,-4.3,0.7,-4.3,3.4c0,2.2,1.8,3.3,3.8,3.3c1.3,0,2.9,-0.4,3.9,-1.4c0.2,1.1,0.9,1.4,1.9,1.4c0.4,0,1.1,-0.1,1.5,-0.3l0,-1.7c-0.2,0.1,-0.4,0.1,-0.6,0.1c-0.4,0,-0.6,-0.3,-0.6,-0.9l0,-5.7Zm1.2,-1.1l1.8,0l0,6.6c0.1,1.8,0.5,2.8,3.1,2.8c0.5,0,1.1,-0.1,1.6,-0.1l0,-1.9c-0.3,0.1,-0.7,0.1,-1,0.1c-1.1,0,-1.2,-0.5,-1.2,-1.6l0,-5.9l2.2,0l0,-1.8l-2.2,0l0,-3.4l-2.5,0l0,3.4l-1.8,0l0,1.8Zm7.9,-1.8l0,11.1l2.5,0l0,-11.1l-2.5,0ZM599.1,433.2l0,2.3l2.5,0l0,-2.3l-2.5,0ZM609,447c-2.2,0,-3.2,-2,-3.2,-4c0,-1.9,1,-3.9,3.2,-3.9c2.2,0,3.2,2,3.2,3.9c0,2,-1,4,-3.2,4m0,1.9c3.6,0,5.6,-2.5,5.6,-5.9c0,-3.4,-2,-5.8,-5.6,-5.8c-3.6,0,-5.6,2.4,-5.6,5.8c0,3.4,2,5.9,5.6,5.9m7.3,-0.3l2.4,0l0,-6.6c0,-1.6,1.1,-2.9,2.7,-2.9c1.5,0,2.2,0.7,2.2,2.5l0,7l2.5,0l0,-7.7c0,-2.5,-1.6,-3.7,-4,-3.7c-1.5,0,-2.7,0.7,-3.5,1.9l0,-1.6l-2.3,0l0,11.1Zm18.8,-3.8c0,1.6,-1.6,2.2,-2.7,2.2c-0.9,0,-2.3,-0.4,-2.3,-1.5c0,-1.3,1,-1.6,2,-1.8c1.1,-0.2,2.3,-0.2,3,-0.7l0,1.8Zm2.5,-4.4c0,-2.4,-2.3,-3.2,-4.5,-3.2c-2.4,0,-4.9,0.8,-5,3.7l2.4,0c0.1,-1.2,1.1,-1.8,2.5,-1.8c1,0,2.3,0.2,2.3,1.5c0,1.4,-1.6,1.3,-3.4,1.6c-2,0.2,-4.2,0.7,-4.2,3.4c0,2.2,1.8,3.3,3.8,3.3c1.3,0,2.9,-0.4,3.8,-1.4c0.2,1.1,0.9,1.4,1.9,1.4c0.4,0,1.2,-0.1,1.6,-0.3l0,-1.7c-0.3,0.1,-0.5,0.1,-0.6,0.1c-0.5,0,-0.6,-0.3,-0.6,-0.9l0,-5.7Zm2.3,-7.2l0,15.4l2.5,0l0,-15.4l-2.5,0ZM663.7,438.1c-0.3,-3.3,-3.1,-5.2,-6.5,-5.3c-4.7,0,-7.4,3.7,-7.4,8.1c0,4.4,2.7,8.1,7.4,8.1c3.7,0,6.3,-2.6,6.5,-6.3l-2.6,0c-0.2,2.3,-1.6,4.1,-3.9,4.1c-3.3,0,-4.7,-2.9,-4.7,-5.9c0,-2.9,1.4,-5.9,4.7,-5.9c2.2,0,3.3,1.3,3.8,3.1l2.7,0Zm11.8,5.6c0.4,-3.4,-1.7,-6.5,-5.2,-6.5c-3.3,0,-5.4,2.7,-5.4,5.8c0,3.5,1.9,5.9,5.4,5.9c2.5,0,4.5,-1.4,5.1,-3.8l-2.3,0c-0.5,1.2,-1.3,1.9,-2.8,1.9c-2,0,-3,-1.6,-3,-3.3l8.2,0ZM667.3,442c0.1,-1.6,1.3,-2.9,3,-2.9c1.6,0,2.7,1.4,2.8,2.9l-5.8,0Zm9.7,6.6l2.5,0l0,-6.6c0,-1.6,1,-2.9,2.7,-2.9c1.4,0,2.1,0.7,2.1,2.5l0,7l2.5,0l0,-7.7c0,-2.5,-1.5,-3.7,-3.9,-3.7c-1.5,0,-2.8,0.7,-3.5,1.9l-0.1,0l0,-1.6l-2.3,0l0,11.1Zm10.9,-9.3l1.8,0l0,6.6c0.1,1.8,0.6,2.8,3.1,2.8c0.6,0,1.1,-0.1,1.6,-0.1l0,-1.9c-0.3,0.1,-0.7,0.1,-1,0.1c-1.1,0,-1.2,-0.5,-1.2,-1.6l0,-5.9l2.2,0l0,-1.8l-2.2,0l0,-3.4l-2.5,0l0,3.4l-1.8,0l0,1.8Zm18,4.4c0.4,-3.4,-1.8,-6.5,-5.3,-6.5c-3.3,0,-5.3,2.7,-5.3,5.8c0,3.5,1.9,5.9,5.4,5.9c2.4,0,4.5,-1.4,5,-3.8l-2.3,0c-0.4,1.2,-1.3,1.9,-2.7,1.9c-2,0,-3,-1.6,-3,-3.3l8.2,0ZM697.7,442c0.1,-1.6,1.2,-2.9,2.9,-2.9c1.7,0,2.8,1.4,2.8,2.9l-5.7,0Zm9.7,6.6l2.4,0l0,-5.3c0,-2.5,1.4,-3.8,3.1,-3.8c0.3,0,0.7,0,1,0.1l0,-2.4c-0.2,0,-0.4,0,-0.9,0c-1.5,0,-3,1.2,-3.3,2.4l0,-2.1l-2.3,0l0,11.1Z" class="g1_1" />

</svg>
