<?xml version="1.0" encoding="UTF-8" standalone="no"?>
<!DOCTYPE svg PUBLIC "-//W3C//DTD SVG 1.1//EN"
"http://www.w3.org/Graphics/SVG/1.1/DTD/svg11.dtd">


<!-- Page 1 -->
<svg x="0" y="0" width="100" height="100" viewBox="477 467 80 1" version="1.1" xmlns="http://www.w3.org/2000/svg" xmlns:xlink="http://www.w3.org/1999/xlink">
	<defs>
	<clipPath id="c0_1"><path d="M432.1,428.7 l345.7,0 l0,77.6 l-345.7,0Z" /></clipPath>

	<style type="text/css"><![CDATA[

	.g1_1{
	fill: #FFFFFF;
	}
	.g2_1{
	fill: #FFFFFF;
	}


	]]></style>

	</defs>

	<g clip-path="url(#c0_1)">
		<path d="M539.6,467.5 L518.2,428.7 l-33.1,0 c-3.9,0 -7.1,3.2 -7.1,7.2 l0,63.2 c0,4 3.2,7.2 7.1,7.2 l33.1,0 Z" class="g1_1" />
		<path d="M523.5,506.3L545,467.5L523.6,428.7l5.3,0c3,0,6.5,2.1,8,4.7l18.8,34.1l-18.9,34.1c-1.4,2.6,-5,4.7,-7.9,4.7l-5.4,0Z" class="g2_1" />
	</g>

</svg>
