<?xml version="1.0" encoding="UTF-8" standalone="no"?>
<!DOCTYPE svg PUBLIC "-//W3C//DTD SVG 1.1//EN"
"http://www.w3.org/Graphics/SVG/1.1/DTD/svg11.dtd">


<svg version="1.1" xmlns="http://www.w3.org/2000/svg" xmlns:xlink="http://www.w3.org/1999/xlink" viewBox="0 0 363.99 364" width="363.99" height="364">
<defs>
<clipPath id="_clipPath_cSdQogqCPQnadhIqHLpbvGJ4QvgQQrU6"><rect width="363.99" height="364"/>
</clipPath>
</defs>
<g clip-path="url(#_clipPath_cSdQogqCPQnadhIqHLpbvGJ4QvgQQrU6)"><path d=" M 322.515 0 L 322.514 0.001 C 322.514 0.002 322.515 0.002 322.515 0.002 L 322.515 0 Z  M 322.515 0.002 L 322.515 0.061 L 322.454 0.184 L 322.331 0.366 L 322.209 0.611 L 322.027 0.978 L 321.782 1.344 L 321.476 1.832 L 321.172 2.321 L 320.806 2.931 L 320.378 3.542 L 319.889 4.213 L 319.4 5.007 L 318.851 5.74 L 318.241 6.596 L 317.63 7.45 L 316.958 8.366 L 316.225 9.344 L 315.431 10.32 L 314.637 11.298 L 313.783 12.337 L 312.866 13.374 L 311.95 14.474 L 310.973 15.574 L 309.935 16.734 L 308.835 17.834 L 307.736 18.993 L 306.575 20.154 L 305.354 21.314 L 304.133 22.475 L 302.851 23.636 L 301.508 24.736 L 300.104 25.896 C 289.418 34.628 167.165 109.676 161.186 114.44 C 155.141 119.142 144.149 131.783 135.173 169.032 C 127.906 199.076 123.204 187.839 99.206 186.923 C 85.161 186.374 46.202 176.116 49.194 206.221 C 49.194 206.221 54.018 199.504 107.205 206.648 C 128.15 209.518 145.248 202.679 150.194 186.923 C 155.14 170.925 162.347 143.751 173.155 129.462 C 178.162 122.866 276.111 62.657 303.105 46.597 C 312.936 40.796 344.565 21.683 322.523 0.005 L 322.515 0.002 Z  M 344.935 31.811 C 344.912 31.804 344.965 31.867 345.02 31.93 L 345.047 31.877 C 344.988 31.837 344.951 31.815 344.935 31.811 Z  M 345.02 31.93 L 344.559 32.853 L 344.009 33.83 L 343.46 34.869 L 342.91 35.967 L 342.3 37.127 L 341.994 37.678 L 341.628 38.288 L 341.261 38.899 L 340.896 39.509 L 340.469 40.12 L 340.04 40.73 L 339.613 41.402 L 339.125 42.012 L 338.575 42.685 L 338.087 43.357 L 337.477 43.967 L 336.866 44.7 L 336.194 45.372 L 335.522 46.044 L 334.789 46.715 L 334.056 47.448 L 333.201 48.12 L 332.346 48.853 L 331.43 49.586 L 330.514 50.319 L 329.476 50.991 L 328.438 51.724 C 306.576 66.38 222.124 118.774 202.645 130.437 C 191.653 136.971 182.86 149.305 180.173 154.863 C 177.181 161.03 172.723 176.357 170.707 202.676 C 170.341 207.744 157.029 216.11 158.678 219.835 C 160.265 223.439 170.403 221.668 170.036 224.477 C 169.67 226.919 166.677 230.644 166.677 233.025 C 166.677 235.834 172.661 233.269 171.195 236.323 C 168.691 241.33 172.662 242.43 174.127 246.215 C 175.653 249.94 173.638 254.215 174.982 257.39 C 177.424 262.885 186.095 263.923 199.956 263.618 C 213.879 263.374 220.169 272.961 217.115 281.51 C 213.147 292.806 203.865 292.623 189.453 302.333 C 174.981 311.981 174.37 324.255 182.797 334.697 C 189.209 342.636 213.33 346.483 228.474 331.095 C 231.588 327.614 221.634 332.316 207.162 324.744 C 207.162 324.744 197.758 317.966 202.765 308.868 C 207.711 299.708 215.772 295.738 224.687 290.548 C 233.541 285.296 245.205 282.426 244.656 271.19 C 244.106 260.015 232.444 258.428 227.741 258.123 C 222.978 257.879 215.65 258.305 209.116 258 C 199.224 257.512 196.233 252.81 195.622 233.941 C 195.439 227.896 186.95 231.132 191.653 223.133 C 194.156 218.98 186.95 220.63 182.065 218.554 C 177.912 216.66 186.888 207.928 193.118 199.623 C 195.072 196.997 192.019 193.64 193.118 181.243 C 194.156 170.435 199.163 156.329 213.636 146.436 C 220.72 141.612 251.617 122.376 260.594 117.247 C 273.173 109.98 334.055 70.593 344.497 62.715 C 362.722 48.947 346.154 33.232 345.019 31.93 L 345.02 31.93 Z  M 329.112 93.674 L 329.052 93.735 L 328.992 93.796 L 328.931 93.857 L 328.808 93.918 L 328.686 94.04 L 328.564 94.163 L 328.38 94.284 L 328.014 94.59 L 327.586 95.017 L 327.037 95.445 L 326.488 95.933 L 325.816 96.482 L 325.144 97.031 L 324.35 97.703 L 323.556 98.375 L 322.702 99.047 L 321.785 99.78 L 320.869 100.574 L 319.892 101.368 L 318.854 102.162 L 317.815 103.018 L 316.716 103.873 L 315.678 104.727 L 313.419 106.437 L 311.098 108.146 L 308.839 109.855 L 306.518 111.443 L 305.42 112.237 L 304.259 112.97 L 303.16 113.703 L 302.121 114.436 C 290.091 121.947 236.11 150.648 224.142 160.541 C 212.112 170.433 212.6 178.859 212.6 178.859 L 210.647 203.347 C 210.647 203.347 203.136 210.919 202.159 213.728 C 202.159 213.728 207.165 217.026 211.623 219.346 C 216.142 221.728 210.769 223.864 212.601 226.002 C 216.143 229.97 218.889 226.735 216.508 233.513 C 216.141 234.55 219.501 237.726 219.134 239.497 C 218.523 242.306 216.997 244.199 219.623 246.703 C 222.615 249.511 232.263 254.276 254.368 249.757 C 278.366 244.81 294.121 263.496 306.09 266.671 C 310.181 267.71 323.738 271.983 345.111 255.374 C 354.332 248.23 339.431 254.701 318.059 245.725 C 295.282 236.199 288.443 235.588 273.116 238.458 C 259.987 240.901 250.278 243.039 245.148 241.512 C 240.751 240.168 244.415 233.634 241.119 232.535 C 234.523 230.337 239.042 227.162 235.135 225.025 C 231.165 222.827 233.486 221.971 233.364 217.575 C 233.303 214.522 229.944 215.377 225.12 212.69 C 221.395 210.552 230.249 206.645 231.531 203.53 C 232.996 199.682 231.164 194.308 232.141 186.431 C 233.912 172.569 254.613 162.86 265.605 156.754 C 277.635 150.221 311.953 129.276 320.074 123.841 C 339.065 111.14 329.112 93.674 329.112 93.674 L 329.112 93.674 Z  M 35.089 209.454 C 22.43 209.598 13.375 215.247 15.245 226.429 L 15.367 226.368 L 15.488 226.307 L 15.611 226.186 L 15.855 226.063 L 16.1 225.88 L 16.466 225.696 L 16.833 225.574 L 17.26 225.392 L 17.748 225.147 L 18.297 224.964 L 18.907 224.781 L 19.518 224.659 L 20.251 224.475 L 21.045 224.353 L 21.839 224.231 L 22.755 224.109 L 23.732 224.048 L 24.771 223.987 L 25.809 223.987 L 26.969 224.048 L 28.19 224.109 L 29.474 224.231 L 30.145 224.353 L 30.878 224.475 L 31.55 224.536 L 32.283 224.72 L 33.016 224.841 L 33.749 224.964 L 34.543 225.147 L 35.337 225.392 L 36.132 225.574 L 36.986 225.819 L 37.78 226.063 L 38.696 226.307 L 39.552 226.613 L 40.468 226.917 L 41.383 227.223 L 42.3 227.59 L 43.276 227.895 L 44.254 228.323 C 65.199 236.81 120.523 261.785 135.181 272.533 C 144.158 279.129 169.194 290.426 162.172 302.7 C 155.149 314.913 121.198 320.591 128.159 346.911 C 135.182 373.291 172.186 361.995 177.193 355.4 C 182.139 348.804 160.706 359.246 153.195 340.378 C 147.211 325.294 157.653 315.28 172.186 305.51 C 179.148 300.808 188.612 297.021 187.146 284.809 C 186.166 276.321 171.205 269.726 156.183 261.299 C 141.161 252.811 83.211 225.515 60.193 215.134 C 51.584 211.264 42.69 209.369 35.094 209.455 L 35.089 209.454 Z " fill="rgb(255,255,255)"/>
</g>
</svg>